<svg width="24" height="24" viewBox="0 0 24 24" fill="none" xmlns="http://www.w3.org/2000/svg">
<path d="M17.2935 11.9698C17.2945 12.1445 17.2612 12.3176 17.1953 12.4794C17.1294 12.6412 17.0323 12.7884 16.9096 12.9126C16.7868 13.0369 16.6408 13.1357 16.4798 13.2035C16.3189 13.2713 16.1461 13.3068 15.9715 13.3078C15.7967 13.3069 15.6239 13.2716 15.4628 13.2038C15.3017 13.1361 15.1556 13.0372 15.0327 12.913C14.9098 12.7887 14.8127 12.6415 14.7467 12.4796C14.6808 12.3178 14.6474 12.1446 14.6485 11.9698C14.6475 11.7952 14.681 11.622 14.747 11.4603C14.813 11.2986 14.9102 11.1515 15.0331 11.0273C15.1559 10.9032 15.302 10.8044 15.463 10.7367C15.624 10.669 15.7968 10.6337 15.9715 10.6328C16.7015 10.6328 17.2935 11.2318 17.2935 11.9698Z" fill="black" fill-opacity="0.2"/>
<path fill-rule="evenodd" clip-rule="evenodd" d="M18.1322 7.40906C17.2832 7.28906 16.1902 7.28906 14.8272 7.28906H9.17318C7.81018 7.28906 6.71718 7.28906 5.86818 7.40906C4.99118 7.53406 4.26018 7.80106 3.71618 8.42906C3.17318 9.05706 3.00618 9.82506 3.00018 10.7221C2.99418 11.5881 3.13918 12.6841 3.31918 14.0501L3.68418 16.8221C3.82518 17.8901 3.93918 18.7551 4.11618 19.4321C4.30118 20.1361 4.57318 20.7201 5.08418 21.1721C5.59418 21.6251 6.20418 21.8211 6.91818 21.9121C7.60518 22.0011 8.46818 22.0011 9.53318 22.0011H14.4672C15.5322 22.0011 16.3952 22.0011 17.0822 21.9131C17.7972 21.8211 18.4052 21.6251 18.9162 21.1731C19.4272 20.7201 19.6992 20.1361 19.8842 19.4321C20.0612 18.7551 20.1752 17.8901 20.3162 16.8221L20.6812 14.0501C20.8612 12.6841 21.0062 11.5881 21.0002 10.7221C20.9932 9.82506 20.8282 9.05706 20.2842 8.42906C19.7402 7.80106 19.0092 7.53406 18.1322 7.40906ZM6.05218 8.73306C5.32618 8.83706 4.95818 9.02506 4.71218 9.31006C4.46418 9.59506 4.32818 9.98906 4.32218 10.7311C4.31718 11.4921 4.44818 12.4951 4.63718 13.9261L4.68718 14.3051L5.05818 14.0331C6.01818 13.3301 7.43418 13.3651 8.34618 14.1281L11.7302 16.9611C12.0502 17.2291 12.6012 17.2791 12.9992 17.0451L13.2342 16.9061C14.3592 16.2441 15.8682 16.3141 16.9062 17.0961L18.7382 18.4761C18.8282 17.9811 18.9092 17.3721 19.0112 16.6011L19.3632 13.9261C19.5522 12.4961 19.6832 11.4921 19.6772 10.7311C19.6722 9.98906 19.5362 9.59506 19.2892 9.31106C19.0422 9.02506 18.6742 8.83706 17.9472 8.73306C17.2022 8.62706 16.2022 8.62606 14.7752 8.62606H9.22518C7.79818 8.62606 6.79718 8.62706 6.05218 8.73306Z" fill="black" fill-opacity="0.2"/>
<path opacity="0.7" d="M6.88319 4.5C5.63119 4.5 4.60419 5.34 4.26219 6.454L4.24219 6.524C4.60019 6.404 4.97219 6.324 5.35019 6.271C6.32219 6.132 7.55119 6.132 8.97919 6.132H15.1812C16.6092 6.132 17.8382 6.132 18.8112 6.271C19.1882 6.324 19.5612 6.403 19.9192 6.524L19.8992 6.454C19.5562 5.34 18.5292 4.5 17.2792 4.5H6.88319Z" fill="black" fill-opacity="0.2"/>
<path opacity="0.4" d="M8.8565 2H15.1385C15.3475 2 15.5085 2 15.6485 2.015C16.1273 2.06826 16.5822 2.25251 16.9631 2.54748C17.3439 2.84246 17.6361 3.23675 17.8075 3.687H6.1875C6.35886 3.23675 6.65105 2.84246 7.03195 2.54748C7.41284 2.25251 7.86769 2.06826 8.3465 2.015C8.4865 2 8.6465 2 8.8565 2Z" fill="black" fill-opacity="0.2"/>
</svg>
