<svg width="24" height="24" viewBox="0 0 24 24" fill="none" xmlns="http://www.w3.org/2000/svg">
<path d="M12 22C7.286 22 4.929 22 3.464 20.536C2 19.07 2 16.714 2 12C2 7.286 2 4.929 3.464 3.465C4.93 2 7.286 2 12 2C16.714 2 19.071 2 20.535 3.465C22 4.928 22 7.286 22 12C22 16.714 22 19.071 20.535 20.536C19.072 22 16.714 22 12 22Z" stroke="black" stroke-width="1.5"/>
<path d="M10 7V17L7 13.562M14 17V7L17 10.437" stroke="black" stroke-width="1.5" stroke-linecap="round" stroke-linejoin="round"/>
</svg>
