<svg width="120" height="120" viewBox="0 0 120 120" fill="none" xmlns="http://www.w3.org/2000/svg">
<path d="M5.02326 0.401567C0.465116 1.96723 0 3.86251 0 19.1895V33.4453L5.86047 28.2539C9.39535 25.0402 14.1395 21.9088 18.1395 20.0136C24.093 17.2943 26.6977 16.4702 34.7907 14.8222C37.3023 14.3277 36.4651 13.8333 23.907 7.40585C8.65116 -0.257659 7.81395 -0.587273 5.02326 0.401567Z" fill="white"/>
<path d="M31.7202 23.9666C10.883 28.9108 -2.79142 47.3692 0.743467 65.7451C3.99928 82.2258 17.4877 94.1743 35.9993 96.976C41.1156 97.7176 44.2783 97.7176 48.8365 97.0584C82.883 91.867 96.4644 55.8567 72.5574 34.1022C61.9528 24.461 46.1388 20.5057 31.7202 23.9666ZM54.3249 31.4653C82.6039 41.2713 84.7435 75.2215 57.8597 87.2524C37.2086 96.4816 12.1853 85.1923 8.4644 65.0035C4.37137 42.2602 30.4179 23.225 54.3249 31.4653Z" fill="white"/>
<path d="M36.0032 38.6377C29.7707 40.121 24.2823 43.7467 20.9334 48.5261C18.7009 51.8223 18.1427 53.6351 17.8637 58.5793C17.3986 65.666 18.5148 69.0446 22.7939 73.9888C31.166 83.7124 48.2823 84.9484 59.352 76.6257C69.8637 68.7973 70.0497 52.4815 59.8172 43.9115C54.0497 39.0497 43.7241 36.7424 36.0032 38.6377ZM50.2358 46.5484C52.1893 47.4549 54.98 49.515 56.4683 51.2454C58.7939 53.8823 59.073 54.9536 59.073 60.145C59.073 65.3364 58.7939 66.4076 56.4683 69.0446C48.4683 78.3561 32.6544 77.1201 26.98 66.7373C19.8172 53.7175 35.6311 39.9562 50.2358 46.5484Z" fill="white"/>
<path d="M91.4442 45.5569C94.2349 52.3964 94.2349 67.9706 91.3512 74.8925L89.3047 79.6719L91.4442 78.4358C92.5605 77.7766 98.8861 74.5629 105.398 71.2667C117.491 65.1689 120.002 63.2736 120.002 60.0599C120.002 57.011 117.305 55.1157 103.072 47.8642L89.4907 40.9423L91.4442 45.5569Z" fill="white"/>
<path d="M0 101.263C0 115.189 0.0930233 115.766 2.13953 117.908C5.5814 121.452 8.27907 120.875 23.4419 113.211C30.9767 109.421 37.1163 106.042 37.2093 105.795C37.2093 105.548 34.9767 105.053 32.3721 104.806C24.5581 103.982 13.2093 98.5434 6.04651 92.1983L0 86.8421V101.263Z" fill="white"/>
<ellipse cx="42.3283" cy="60.1451" rx="6.97674" ry="6.18025" fill="white"/>
</svg>
