<svg width="16" height="16" viewBox="0 0 16 16" fill="none" xmlns="http://www.w3.org/2000/svg">
<g clip-path="url(#clip0_4149_13224)">
<path fill-rule="evenodd" clip-rule="evenodd" d="M8.71852 0.317525C8.62536 0.221973 8.51402 0.146035 8.39105 0.0941858C8.26808 0.0423366 8.13598 0.015625 8.00252 0.015625C7.86907 0.015625 7.73697 0.0423366 7.614 0.0941858C7.49103 0.146035 7.37969 0.221973 7.28652 0.317525L6.64852 0.972525C6.52295 1.10155 6.36487 1.19427 6.19097 1.24092C6.01708 1.28756 5.83381 1.28639 5.66052 1.23752L4.78052 0.989525C4.65208 0.953379 4.51769 0.943305 4.38529 0.959897C4.25289 0.97649 4.12515 1.01941 4.00959 1.08614C3.89404 1.15286 3.793 1.24204 3.71245 1.34841C3.63189 1.45479 3.57343 1.57621 3.54052 1.70552L3.31452 2.59152C3.27022 2.76594 3.17966 2.92517 3.05242 3.05242C2.92517 3.17966 2.76594 3.27022 2.59152 3.31452L1.70552 3.53952C1.57621 3.57243 1.45479 3.63089 1.34841 3.71145C1.24204 3.792 1.15286 3.89304 1.08614 4.00859C1.01941 4.12415 0.97649 4.25189 0.959897 4.38429C0.943305 4.51669 0.953379 4.65108 0.989525 4.77952L1.23752 5.66052C1.28639 5.83381 1.28756 6.01708 1.24092 6.19097C1.19427 6.36487 1.10155 6.52295 0.972525 6.64852L0.317525 7.28652C0.221973 7.37969 0.146035 7.49103 0.0941858 7.614C0.0423366 7.73697 0.015625 7.86907 0.015625 8.00252C0.015625 8.13598 0.0423366 8.26808 0.0941858 8.39105C0.146035 8.51402 0.221973 8.62536 0.317525 8.71852L0.972525 9.35752C1.10137 9.48301 1.19399 9.64091 1.24063 9.81462C1.28727 9.98832 1.28619 10.1714 1.23752 10.3445L0.989525 11.2245C0.953379 11.353 0.943305 11.4874 0.959897 11.6198C0.97649 11.7522 1.01941 11.8799 1.08614 11.9955C1.15286 12.111 1.24204 12.212 1.34841 12.2926C1.45479 12.3732 1.57621 12.4316 1.70552 12.4645L2.59152 12.6905C2.76594 12.7348 2.92517 12.8254 3.05242 12.9526C3.17966 13.0799 3.27022 13.2391 3.31452 13.4135L3.53952 14.2995C3.57232 14.4289 3.6307 14.5505 3.71121 14.6569C3.79172 14.7634 3.89274 14.8527 4.00831 14.9195C4.12388 14.9864 4.25165 15.0294 4.38411 15.046C4.51656 15.0627 4.65101 15.0527 4.77952 15.0165L5.66052 14.7685C5.83372 14.7195 6.01693 14.7182 6.19082 14.7647C6.36472 14.8111 6.52284 14.9037 6.64852 15.0325L7.28652 15.6875C7.37969 15.7831 7.49103 15.859 7.614 15.9109C7.73697 15.9627 7.86907 15.9894 8.00252 15.9894C8.13598 15.9894 8.26808 15.9627 8.39105 15.9109C8.51402 15.859 8.62536 15.7831 8.71852 15.6875L9.35752 15.0325C9.48311 14.9039 9.64107 14.8114 9.81476 14.765C9.98846 14.7185 10.1715 14.7197 10.3445 14.7685L11.2245 15.0165C11.353 15.0527 11.4875 15.0627 11.6199 15.046C11.7524 15.0294 11.8802 14.9864 11.9957 14.9195C12.1113 14.8527 12.2123 14.7634 12.2928 14.6569C12.3734 14.5505 12.4317 14.4289 12.4645 14.2995L12.6905 13.4135C12.7348 13.2391 12.8254 13.0799 12.9526 12.9526C13.0799 12.8254 13.2391 12.7348 13.4135 12.6905L14.2995 12.4655C14.4289 12.4327 14.5505 12.3744 14.6569 12.2938C14.7634 12.2133 14.8527 12.1123 14.9195 11.9967C14.9864 11.8812 15.0294 11.7534 15.046 11.6209C15.0627 11.4885 15.0527 11.354 15.0165 11.2255L14.7685 10.3455C14.7195 10.1723 14.7182 9.98912 14.7647 9.81522C14.8111 9.64133 14.9037 9.4832 15.0325 9.35752L15.6875 8.71852C15.7831 8.62536 15.859 8.51402 15.9109 8.39105C15.9627 8.26808 15.9894 8.13598 15.9894 8.00252C15.9894 7.86907 15.9627 7.73697 15.9109 7.614C15.859 7.49103 15.7831 7.37969 15.6875 7.28652L15.0325 6.64852C14.9037 6.52284 14.8111 6.36472 14.7647 6.19082C14.7182 6.01693 14.7195 5.83372 14.7685 5.66052L15.0165 4.78052C15.0527 4.65201 15.0627 4.51756 15.046 4.38511C15.0294 4.25265 14.9864 4.12488 14.9195 4.00931C14.8527 3.89374 14.7634 3.79272 14.6569 3.71221C14.5505 3.6317 14.4289 3.57332 14.2995 3.54052L13.4135 3.31452C13.2391 3.27022 13.0799 3.17966 12.9526 3.05242C12.8254 2.92517 12.7348 2.76594 12.6905 2.59152L12.4655 1.70552C12.4326 1.57621 12.3742 1.45479 12.2936 1.34841C12.213 1.24204 12.112 1.15286 11.9965 1.08614C11.8809 1.01941 11.7532 0.97649 11.6208 0.959897C11.4884 0.943305 11.354 0.953379 11.2255 0.989525L10.3455 1.23752C10.1721 1.28658 9.98863 1.28785 9.81454 1.2412C9.64044 1.19455 9.48219 1.10172 9.35652 0.972525L8.71852 0.317525ZM11.7755 6.29252C11.9187 6.15435 12.0012 5.96494 12.0048 5.76596C12.0083 5.56698 11.9327 5.37474 11.7945 5.23152C11.6563 5.08831 11.4669 5.00585 11.268 5.00228C11.069 4.99872 10.8767 5.07435 10.7335 5.21252L6.59952 9.20452L5.28253 7.88952C5.14156 7.74896 4.95053 7.67015 4.75146 7.67043C4.55239 7.67071 4.36159 7.75006 4.22102 7.89103C4.08046 8.03199 4.00165 8.22301 4.00193 8.42208C4.00221 8.62115 4.08156 8.81196 4.22252 8.95252L6.06152 10.7865C6.20041 10.9253 6.38817 11.0041 6.58448 11.0059C6.7808 11.0078 6.97002 10.9326 7.11153 10.7965L11.7755 6.29252Z" fill="white"/>
</g>
<defs>
<clipPath id="clip0_4149_13224">
<rect width="16" height="16" fill="white"/>
</clipPath>
</defs>
</svg>
